<?xml version="1.0" encoding="UTF-8" standalone="no" ?>
<!DOCTYPE svg PUBLIC "-//W3C//DTD SVG 1.1//EN" "http://www.w3.org/Graphics/SVG/1.1/DTD/svg11.dtd">
<svg xmlns="http://www.w3.org/2000/svg" xmlns:xlink="http://www.w3.org/1999/xlink" version="1.1" width="241" height="125.9225" viewBox="0 0 241 125.9225" xml:space="preserve">
<desc>Created with Fabric.js 4.6.0</desc>
<defs>
</defs>
<g transform="matrix(0.13 0 0 -0.13 144.23 86.1)" id="MaaIjX88VTJd7UGejo0U5"  >
<path style="stroke: none; stroke-width: 1; stroke-dasharray: none; stroke-linecap: butt; stroke-dashoffset: 0; stroke-linejoin: miter; stroke-miterlimit: 4; fill: rgb(39,29,20); fill-rule: nonzero; opacity: 1;" vector-effect="non-scaling-stroke"  transform=" translate(-3247.38, -3879.14)" d="M 3238.77 4080.02 C 3199.3 4080.02 3169.91 4060.64 3169.91 4014 C 3169.91 3978.85 3189.2799999999997 3954.46 3236.64 3954.46 C 3276.79 3954.46 3304.0499999999997 3978.11 3304.0499999999997 4015.45 C 3304.0499999999997 4057.7599999999998 3279.66 4080.02 3238.7699999999995 4080.02 z M 3159.86 3750.7 C 3150.52 3739.23 3141.2200000000003 3727.06 3141.2200000000003 3712.6899999999996 C 3141.2200000000003 3684.0099999999998 3177.78 3675.3799999999997 3228.0200000000004 3675.3799999999997 C 3269.6300000000006 3675.3799999999997 3326.3000000000006 3678.2999999999997 3326.3000000000006 3716.9799999999996 C 3326.3000000000006 3739.9799999999996 3299.0300000000007 3741.3999999999996 3264.580000000001 3743.5599999999995 z M 3372.2000000000003 4077.85 C 3385.1000000000004 4061.3399999999997 3398.7500000000005 4038.39 3398.7500000000005 4005.39 C 3398.7500000000005 3925.7599999999998 3336.3300000000004 3879.14 3245.9700000000003 3879.14 C 3222.9900000000002 3879.14 3202.1800000000003 3882 3189.28 3885.58 L 3165.6000000000004 3847.5699999999997 L 3235.8900000000003 3843.2699999999995 C 3360.01 3835.3599999999997 3433.1600000000003 3831.7699999999995 3433.1600000000003 3736.3899999999994 C 3433.1600000000003 3653.8699999999994 3360.7200000000003 3607.2699999999995 3235.8900000000003 3607.2699999999995 C 3106.05 3607.2699999999995 3056.55 3640.2699999999995 3056.55 3696.9299999999994 C 3056.55 3729.2299999999996 3070.9100000000003 3746.4099999999994 3096.01 3770.1199999999994 C 3072.3300000000004 3780.1299999999997 3064.4500000000003 3798.0499999999993 3064.4500000000003 3817.4299999999994 C 3064.4500000000003 3833.2199999999993 3072.3300000000004 3847.5699999999993 3085.26 3861.1999999999994 C 3098.17 3874.8199999999993 3112.5200000000004 3888.4699999999993 3129.73 3904.2499999999995 C 3094.59 3921.4599999999996 3068.04 3958.7699999999995 3068.04 4011.8599999999997 C 3068.04 4094.3599999999997 3122.56 4151.009999999999 3232.3 4151.009999999999 C 3263.15 4151.009999999999 3281.82 4148.169999999999 3298.32 4143.839999999999 L 3438.21 4143.839999999999 L 3438.21 4082.879999999999 L 3372.2 4077.849999999999" stroke-linecap="round" />
</g>
<g transform="matrix(0.13 0 0 -0.13 187.8 62.45)" id="_egxTVsvYFB5OV9zuCBOe"  >
<path style="stroke: none; stroke-width: 1; stroke-dasharray: none; stroke-linecap: butt; stroke-dashoffset: 0; stroke-linejoin: miter; stroke-miterlimit: 4; fill: rgb(39,29,20); fill-rule: nonzero; opacity: 1;" vector-effect="non-scaling-stroke"  transform=" translate(-3574.1, -4056.51)" d="M 3564.42 4208.21 C 3523.52 4208.21 3499.86 4231.9 3499.86 4272.81 C 3499.86 4313.660000000001 3523.52 4335.92 3564.42 4335.92 C 3606.03 4335.92 3629.71 4313.66 3629.71 4272.81 C 3629.71 4231.900000000001 3606.03 4208.21 3564.42 4208.21 z M 3471.86 3777.09 L 3471.86 3833.7400000000002 L 3508.46 3838.7500000000005 C 3518.51 3840.2000000000003 3519.93 3842.3400000000006 3519.93 3853.1200000000003 L 3519.93 4064.03 C 3519.93 4071.9100000000003 3517.79 4076.9500000000003 3510.5899999999997 4079.0800000000004 L 3471.8599999999997 4092.7300000000005 L 3479.7499999999995 4150.81 L 3628.2599999999993 4150.81 L 3628.2599999999993 3853.1200000000003 C 3628.2599999999993 3841.6300000000006 3628.959999999999 3840.2000000000003 3639.749999999999 3838.7500000000005 L 3676.3399999999992 3833.7400000000002 L 3676.3399999999992 3777.09 L 3471.859999999999 3777.09" stroke-linecap="round" />
</g>
<g transform="matrix(0.13 0 0 -0.13 219.88 67.06)" id="G01MIwnN9A69HzQ3rPkMM"  >
<path style="stroke: none; stroke-width: 1; stroke-dasharray: none; stroke-linecap: butt; stroke-dashoffset: 0; stroke-linejoin: miter; stroke-miterlimit: 4; fill: rgb(39,29,20); fill-rule: nonzero; opacity: 1;" vector-effect="non-scaling-stroke"  transform=" translate(-3814.73, -4021.94)" d="M 3960 3804.89 C 3929.14 3789.85 3883.96 3776.23 3843.07 3776.23 C 3757.7000000000003 3776.23 3725.4300000000003 3810.63 3725.4300000000003 3891.73 L 3725.4300000000003 4079.67 C 3725.4300000000003 4083.96 3725.4300000000003 4086.84 3719.67 4086.84 L 3669.46 4086.84 L 3669.46 4150.6900000000005 C 3732.61 4157.88 3757.7 4189.450000000001 3765.59 4267.64 L 3833.75 4267.64 L 3833.75 4165.740000000001 C 3833.75 4160.740000000001 3833.75 4158.570000000001 3839.5 4158.570000000001 L 3940.64 4158.570000000001 L 3940.64 4086.8400000000006 L 3833.75 4086.8400000000006 L 3833.75 3915.4 C 3833.75 3873.07 3843.81 3856.59 3882.52 3856.59 C 3902.64 3856.59 3923.42 3861.59 3940.64 3868.05 L 3960 3804.98 L 3960 3804.89" stroke-linecap="round" />
</g>
<g transform="matrix(0.13 0 0 -0.13 49.33 75.36)" id="9quBFQ6o8Jz28CnrhG_Ak"  >
<path style="stroke: none; stroke-width: 1; stroke-dasharray: none; stroke-linecap: butt; stroke-dashoffset: 0; stroke-linejoin: miter; stroke-miterlimit: 4; fill: rgb(235,28,36); fill-rule: nonzero; opacity: 1;" vector-effect="non-scaling-stroke"  transform=" translate(-2535.63, -3959.7)" d="M 2897.09 3993.16 L 2569.07 4321.16 C 2550.2000000000003 4340.05 2519.56 4340.05 2500.6600000000003 4321.16 L 2432.55 4253.04 L 2518.9500000000003 4166.64 C 2539.0400000000004 4173.42 2562.0600000000004 4168.88 2578.0600000000004 4152.87 C 2594.1400000000003 4136.76 2598.6600000000003 4113.54 2591.7100000000005 4093.39 L 2674.9800000000005 4010.12 C 2695.1300000000006 4017.06 2718.3700000000003 4012.58 2734.4600000000005 3996.46 C 2756.9500000000003 3973.98 2756.9500000000003 3937.55 2734.4600000000005 3915.05 C 2711.9600000000005 3892.5600000000004 2675.5400000000004 3892.5600000000004 2653.0300000000007 3915.05 C 2636.120000000001 3931.98 2631.9300000000007 3956.8300000000004 2640.5000000000005 3977.6600000000003 L 2562.8400000000006 4055.32 L 2562.8300000000004 3850.96 C 2568.32 3848.25 2573.4900000000002 3844.62 2578.0600000000004 3840.07 C 2600.55 3817.59 2600.55 3781.1600000000003 2578.0600000000004 3758.65 C 2555.5700000000006 3736.17 2519.1200000000003 3736.17 2496.6500000000005 3758.65 C 2474.1700000000005 3781.1600000000003 2474.1700000000005 3817.59 2496.6500000000005 3840.07 C 2502.2100000000005 3845.6200000000003 2508.6400000000003 3849.82 2515.5000000000005 3852.6400000000003 L 2515.5000000000005 4058.8900000000003 C 2508.6400000000003 4061.7000000000003 2502.2200000000003 4065.8700000000003 2496.6500000000005 4071.4600000000005 C 2479.6200000000003 4088.4800000000005 2475.5200000000004 4113.4800000000005 2484.2500000000005 4134.39 L 2399.0900000000006 4219.58 L 2174.1700000000005 3994.68 C 2155.2800000000007 3975.77 2155.2800000000007 3945.14 2174.1700000000005 3926.24 L 2502.1900000000005 3598.25 C 2511.5800000000004 3588.86 2523.8800000000006 3584.13 2536.2000000000007 3584.08 L 2536.580000000001 3584.08 C 2548.890000000001 3584.13 2561.2000000000007 3588.85 2570.610000000001 3598.25 L 2897.090000000001 3924.73 C 2915.980000000001 3943.63 2915.980000000001 3974.27 2897.090000000001 3993.16" stroke-linecap="round" />
</g>
</svg>